<svg id="Calque_1" data-name="Calque 1" xmlns="http://www.w3.org/2000/svg" viewBox="0 0 1066.66 332.58"><defs><style>.cls-1{fill:#ec6e24;}.cls-2{fill:#3b3c3c;}</style></defs><path class="cls-1" d="M1039.27,270.61V162.36c0-12.28,8-19.55,17.54-19.55s17.54,7.27,17.54,19.55v4.76h.5c9.52-14.78,24.06-24.31,42.6-24.31,26.06,0,40.09,18.54,40.09,46.61v81.19H1120V199.94c0-16.54-7.77-22.05-17.54-22.05-14.53,0-25.56,12.28-25.56,38.34v54.38Zm-39.34-127.8c-10.27,0-18.79,8-18.79,20.8v107h37.59v-107c0-12.78-8.52-20.8-18.8-20.8m0-19.79a22.8,22.8,0,1,0-23-22.8,22.88,22.88,0,0,0,23,22.8M900.2,241c-16.79,0-27.06-13.28-27.06-33.08s10.27-33.08,27.06-33.08,27.06,13.28,27.06,33.08S917,241,900.2,241m0,32.08c39.59,0,65.15-27.06,65.15-65.15s-25.56-65.15-65.15-65.15S835.05,169.88,835.05,208s25.56,65.15,65.15,65.15M753.1,208c0,20.55,10,32.58,26.31,32.58,10.78,0,18.79-5.26,22.8-12.53h.5L830,245.56c-9.52,18.54-29.32,27.57-51.87,27.57C739.06,273.13,715,246.07,715,208s24.06-65.15,63.15-65.15c22.55,0,42.35,9,51.87,27.57l-27.31,17.54h-.5c-4-7.27-12-12.53-22.8-12.53-16.28,0-26.31,12-26.31,32.56M582.7,270.61V162.36c0-12.28,8-19.55,17.54-19.55s17.54,7.27,17.54,19.55v4.76h.5c9.52-14.78,24.06-24.31,42.6-24.31,26.06,0,40.09,18.54,40.09,46.61v81.19H663.38V199.94c0-16.54-7.77-22.05-17.54-22.05-14.53,0-25.56,12.28-25.56,38.34v54.38ZM502.51,241c-16.79,0-27.06-13.28-27.06-33.08s10.27-33.08,27.06-33.08,27.06,13.28,27.06,33.08S519.3,241,502.51,241m0,32.08c39.59,0,65.15-27.06,65.15-65.15s-25.56-65.15-65.15-65.15S437.36,169.88,437.36,208s25.56,65.15,65.15,65.15M360.68,241c-16.79,0-27.06-13.28-27.06-33.08s10.27-33.08,27.06-33.08,27.06,13.28,27.06,33.08S377.47,241,360.68,241m12.53-98.23c-15.29,0-28.57,6.26-39.09,19.8h-.5V102.72c0-12.78-8.52-20.8-18.79-20.8s-18.79,8-18.79,20.8v167.9h35.08V251.57h.5c8.52,13.53,23.05,21.55,40.35,21.55,32.33,0,54.38-27.82,54.38-65.66,0-37.08-21.06-64.65-53.14-64.65m-110.33,79c-4.91,9.4-17.17,20.66-32.17,20.66-8.47,0-13.43-3.66-16.94-6.71l66.49-47.68C272.55,162.88,254,142.8,219.5,142.8c-39.78,0-58.72,33.06-58.72,59.62a77.78,77.78,0,0,0,6,30.62c-8.53,4.66-15.1,8.14-21.11,8.14-11.16,0-16.44-6.54-16.44-18.72V102.38c0-12.74-8.49-20.72-18.73-20.72s-18.73,8-18.73,20.73V225.67c0,28.33,19.87,47.18,48.06,47.18,13.93,0,28-4.74,44.32-15.58a63.43,63.43,0,0,0,42.07,15.85c32.44,0,51.88-14.26,61.34-33.49Zm-43.38-49c12.44,0,17,7.5,19.22,10.89l-41.67,31a46.18,46.18,0,0,1-2.76-14.2C194.29,181.53,207.64,172.82,219.5,172.82Z" transform="translate(-91.8 -77.42)"/><path class="cls-2" d="M986.77,407.82H967.86V311.18h30q17.21,0,27.09,8.4t9.88,23.06q0,14.53-10,23t-26.95,8.47H986.77v33.71Zm28.64-65.18q0-6.76-4.59-10.51t-12.77-3.74H986.77V357h11.28q8.33,0,12.84-3.74T1015.41,342.64Zm29.2.43h16.51l2.25,9.17a27.19,27.19,0,0,1,8.32-7.76,19.26,19.26,0,0,1,9.88-2.82,25.48,25.48,0,0,1,3.39.21,12.76,12.76,0,0,1,3,.77L1083,362.25a26.76,26.76,0,0,0-3-.63,17.76,17.76,0,0,0-10.44,1.55,18.58,18.58,0,0,0-6.21,5.15v39.51H1044.6V343.07Zm79.43-1.42q15,0,24.69,9.6t9.73,24.27q0,14.52-9.8,24.12T1124,409.23q-14.82,0-24.62-9.59t-9.81-24.12q0-14.68,9.74-24.27T1124,341.65Zm0,16.65a15.11,15.11,0,0,0-11.5,4.87,17.27,17.27,0,0,0-4.58,12.35,17.08,17.08,0,0,0,4.58,12.2,16,16,0,0,0,23,0,17.11,17.11,0,0,0,4.58-12.2,17.33,17.33,0,0,0-4.58-12.35A15.13,15.13,0,0,0,1124,358.3Z" transform="translate(-91.8 -77.42)"/><path class="cls-2" d="M395.38,327.22q-6.08,0-9.75,2.76a8.91,8.91,0,0,0-3.67,7.55,9.33,9.33,0,0,0,4,7.7q4,3,17.1,7.42,14.82,5,21,11.51t6.22,16.74a26.32,26.32,0,0,1-9.68,20.77Q410.92,410,396.51,410a53.35,53.35,0,0,1-20.27-3.88,49.52,49.52,0,0,1-16.88-11.38l10.45-13a40.5,40.5,0,0,0,12.43,8.69,35.31,35.31,0,0,0,14.27,2.89q6.63,0,10.66-3.18a10.17,10.17,0,0,0,4-8.4,8.59,8.59,0,0,0-3.67-7.06q-3.67-2.83-15.54-6.93-16.39-5.5-22.75-12.14t-6.35-17.38a25.2,25.2,0,0,1,9.18-19.92q9.18-7.9,23.17-7.91a44.27,44.27,0,0,1,17.09,3.39,46.6,46.6,0,0,1,14.83,9.89l-11,13a40,40,0,0,0-10.38-7.21A25.09,25.09,0,0,0,395.38,327.22Z" transform="translate(-91.8 -77.42)"/><path class="cls-2" d="M474.48,342.34q15,0,24.72,9.6t9.75,24.3q0,14.55-9.82,24.15T474.48,410q-14.84,0-24.65-9.61T440,376.24q0-14.69,9.75-24.3T474.48,342.34Zm0,16.67A15.13,15.13,0,0,0,463,363.88a17.31,17.31,0,0,0-4.59,12.36A17.12,17.12,0,0,0,463,388.46a16,16,0,0,0,23,0,17.12,17.12,0,0,0,4.59-12.22A17.31,17.31,0,0,0,486,363.88,15.15,15.15,0,0,0,474.48,359Z" transform="translate(-91.8 -77.42)"/><path class="cls-2" d="M523.07,309h18.79v99.59H523.07Z" transform="translate(-91.8 -77.42)"/><path class="cls-2" d="M603.17,343.75H622v64.84H605.57l-2.26-8.76a27.74,27.74,0,0,1-9,7.49A22.93,22.93,0,0,1,583.67,410q-11.29,0-17.8-7.35t-6.49-20.2v-38.7h18.78v35.88q0,6.36,3,9.82a10.37,10.37,0,0,0,8.33,3.46,13.85,13.85,0,0,0,7.56-2.19,20.14,20.14,0,0,0,6.15-6.43Z" transform="translate(-91.8 -77.42)"/><path class="cls-2" d="M646.81,359.85h-13V344.46l13-.71h1l2.26-18.51H665.6v18.51h20.91v16.1H665.6v22.89a11.8,11.8,0,0,0,2.19,7.55,7.4,7.4,0,0,0,6.15,2.76,11.1,11.1,0,0,0,4.3-.92,18.71,18.71,0,0,0,4.59-2.9l8.9,13.28a31.46,31.46,0,0,1-20.2,7.49q-11.71,0-18.22-7.06t-6.5-19.78Z" transform="translate(-91.8 -77.42)"/><path class="cls-2" d="M712.78,312a11.3,11.3,0,0,1,0,22.6,10.61,10.61,0,0,1-7.84-3.39,11.17,11.17,0,0,1,0-15.89A10.7,10.7,0,0,1,712.78,312Zm-9.32,31.78h18.79v64.84H703.46Z" transform="translate(-91.8 -77.42)"/><path class="cls-2" d="M770.84,342.34q15,0,24.72,9.6t9.75,24.3q0,14.55-9.82,24.15T770.84,410q-14.83,0-24.65-9.61t-9.82-24.15q0-14.69,9.75-24.3T770.84,342.34Zm0,16.67a15.12,15.12,0,0,0-11.51,4.87,17.28,17.28,0,0,0-4.6,12.36,17.09,17.09,0,0,0,4.6,12.22,16,16,0,0,0,23,0,17.12,17.12,0,0,0,4.59-12.22,17.31,17.31,0,0,0-4.59-12.36A15.15,15.15,0,0,0,770.84,359Z" transform="translate(-91.8 -77.42)"/><path class="cls-2" d="M838.22,408.59H819.43V343.75H836l2.26,9.32a27.74,27.74,0,0,1,9-7.91,22.6,22.6,0,0,1,10.88-2.82q11.58,0,18.22,7.55T883,370.73v37.86H864.21V373.41q0-6.63-3.11-10.31t-8.76-3.67a13.92,13.92,0,0,0-7.69,2.33,21.83,21.83,0,0,0-6.43,6.71Z" transform="translate(-91.8 -77.42)"/><path class="cls-2" d="M919.72,382.6q-12.29-3.39-17-8.2T898.11,362a17.13,17.13,0,0,1,7.06-14.12q7.07-5.52,18.08-5.51a42.61,42.61,0,0,1,12.79,2,41.94,41.94,0,0,1,11.37,5.51l-8.48,12.72a30.34,30.34,0,0,0-7.91-4.31,23.39,23.39,0,0,0-8-1.63,8.71,8.71,0,0,0-5.15,1.28,4.23,4.23,0,0,0-1.77,3.67,4.82,4.82,0,0,0,2.4,3.95q2.4,1.69,9.61,3.68Q938.94,372,944,377a16.73,16.73,0,0,1,5,12.43q0,9.47-7,15T922.83,410a45.81,45.81,0,0,1-14.69-2.33,50.61,50.61,0,0,1-13.56-7.13l8.62-12.86a38.24,38.24,0,0,0,9.67,5.79,26.22,26.22,0,0,0,10,2.12,10.18,10.18,0,0,0,6-1.55,4.8,4.8,0,0,0,2.19-4.1,4.52,4.52,0,0,0-2-3.74Q927.07,384.72,919.72,382.6Z" transform="translate(-91.8 -77.42)"/></svg>